<svg width="4390" height="742" xmlns="http://www.w3.org/2000/svg" xmlns:xlink="http://www.w3.org/1999/xlink" xml:space="preserve" overflow="hidden"><defs><clipPath id="clip0"><rect x="98" y="41" width="4390" height="742"/></clipPath></defs><g clip-path="url(#clip0)" transform="translate(-98 -41)"><path d="M1467 201.015C1493.66 200.982 1520.32 201.015 1546.98 201.015 1546.98 224.687 1547.05 248.328 1546.92 271.968 1520.29 271.968 1493.66 271.904 1467.03 272 1467 248.36 1467.03 224.687 1467 201.015Z" fill-rule="evenodd"/><path d="M1801.4 209.878C1811 202.19 1823.92 201.386 1835.74 201.193 1875.65 201.161 1915.55 201.032 1955.46 201 1955.49 319.633 1955.46 438.266 1955.49 556.867 1982 557.092 2008.5 557.028 2035.04 557.092 2047 557.446 2060.46 558.089 2069.81 566.614 2084.49 579.481 2083.14 606.019 2066.85 616.955 2056.44 623.486 2043.69 623.904 2031.8 624 1961.18 623.936 1890.52 623.936 1819.9 624 1805.8 623.871 1790.6 624.837 1777.98 617.406 1761.46 607.08 1759.28 581.057 1773.06 567.611 1781.77 558.797 1794.97 557.575 1806.7 557.124 1834.01 556.867 1861.32 556.963 1888.66 556.899 1888.73 460.687 1888.63 364.442 1888.69 268.198 1871.05 267.972 1853.42 268.005 1835.81 267.972 1824.79 267.811 1813.09 267.104 1803.61 260.928 1787 249.862 1785.75 222.359 1801.4 209.878Z" fill-rule="evenodd"/><path d="M966.018 237.698C975.306 229.127 988.805 228.193 1000.83 228 1105.57 228.032 1210.29 227.968 1315 228.129 1314.65 263.44 1315.06 298.72 1314.74 334.032 1314.29 346.243 1312.17 360.193 1301.76 368.022 1286.43 380.62 1259.17 375.401 1252.07 356.037 1245.32 336.577 1248.85 315.538 1247.95 295.369 1191.32 295.305 1134.69 295.337 1078.06 295.369 1078.03 327.556 1078.03 359.774 1078.06 391.961 1097.41 391.993 1116.76 391.993 1136.11 391.961 1137.29 378.848 1135.3 363.319 1145.49 353.137 1157.45 339.058 1181.97 339.025 1193.96 353.105 1202.28 362.867 1203.05 376.528 1203.15 388.803 1203.09 414.578 1203.25 440.353 1203.09 466.128 1202.83 477.341 1201.61 489.745 1193.93 498.54 1181.91 512.523 1157.35 512.684 1145.46 498.476 1135.17 488.166 1137.33 472.475 1136.07 459.266 1116.72 459.201 1097.41 459.234 1078.06 459.266 1078.03 491.839 1078.03 524.412 1078.06 556.953 1100.56 557.146 1123.02 557.082 1145.49 557.114 1157.58 557.307 1171.07 558.048 1180.52 566.522 1194.57 578.991 1193.99 603.928 1179.3 615.655 1169.76 622.872 1157.29 623.807 1145.75 624 1098.6 624 1051.42 623.936 1004.23 624 991.634 623.903 977.781 623.549 967.303 615.559 952.101 603.348 952.197 576.767 968.043 565.104 980.32 556.115 996.359 557.404 1010.76 556.888 1010.76 469.737 1010.79 382.585 1010.76 295.434 996.808 295.144 981.67 295.982 969.36 288.346 952.937 277.424 951.458 250.778 966.018 237.698Z" fill-rule="evenodd"/><path d="M2570.01 238.701C2578.59 229.615 2591.98 228.294 2603.81 228.004 2654.28 227.972 2704.78 228.133 2755.28 228.229 2784.94 228.229 2815.46 232.612 2841.64 247.304 2875.44 266.218 2901.04 301.049 2905.06 340.132 2909.36 374.802 2898.95 412.21 2873.41 436.762 2846.59 463.022 2812.21 483.837 2774.11 486.737 2743.78 489.379 2713.26 487.736 2682.84 488.348 2682.81 511.192 2682.81 534.069 2682.84 556.914 2710.14 557.719 2737.58 555.818 2764.82 558.106 2783.17 559.072 2797.66 576.858 2794.38 595.128 2792.94 613.042 2774.98 623.804 2758.33 623.578 2708.99 624.449 2659.61 623.643 2610.26 623.997 2597.03 623.836 2581.99 623.836 2571.45 614.621 2556.84 602.055 2557.74 575.956 2573.45 564.711 2585.85 556.044 2601.65 557.526 2615.98 556.592 2615.72 469.531 2615.89 382.47 2615.89 295.41 2602.14 295.055 2587.29 295.958 2575.02 288.676 2558.54 278.333 2556.23 252.202 2570.01 238.701M2682.84 295.281C2682.81 337.2 2682.81 379.119 2682.84 421.039 2714.35 420.233 2746.32 423.971 2777.48 417.816 2803.25 412.275 2829.17 395.456 2837.14 369.099 2842.86 350.83 2837.11 330.112 2823.26 317.095 2807.36 300.63 2783.62 295.41 2761.55 295.281 2735.3 295.217 2709.05 295.313 2682.84 295.281Z" fill-rule="evenodd"/><path d="M2285.85 321.283C2337.82 313.249 2393.21 326.553 2434.69 359.072 2458.47 381.116 2475.85 410.069 2484.93 441.11 2490.85 463.379 2489.43 486.611 2489.82 509.426 2398.32 509.619 2306.83 509.33 2215.33 509.555 2226.95 537.961 2254.4 557.531 2284.04 563.476 2332 573.437 2380.82 562.158 2427.35 550.365 2441.71 547.441 2457.28 541.56 2471.57 547.858 2488.63 555.313 2495.48 578.964 2485.09 594.388 2476.95 606.503 2461.98 610.616 2448.85 614.986 2402.38 628.29 2353.85 635.552 2305.44 633.72 2261.07 631.856 2215.98 615.725 2185.27 582.756 2130.82 529.349 2128.57 432.402 2180.87 376.842 2208.54 347.6 2245.78 326.971 2285.85 321.283M2271.2 393.616C2247.84 402.26 2229.3 420.834 2217.65 442.492 2283.59 442.524 2349.54 442.62 2415.51 442.46 2403.18 418.97 2382.39 399.497 2356.71 391.656 2329.07 383.269 2298.4 383.494 2271.2 393.616Z" fill-rule="evenodd"/><path d="M3059.91 327.021C3109.21 312.307 3164.33 317.962 3209.4 342.955 3242.69 359.05 3264.29 391.594 3278.41 424.683 3290 451.347 3288.81 481 3288.62 509.431 3197.42 509.463 3106.23 509.302 3015.03 509.495 3026.56 537.541 3053.42 557.169 3082.7 563.177 3130.14 573.393 3178.61 562.438 3224.71 550.712 3238.99 547.853 3254.15 541.974 3268.65 546.921 3286.47 553.443 3294.72 577.248 3284.64 593.407 3277.8 604.844 3264.39 609.245 3252.54 613.422 3225.87 621.806 3198.29 627.268 3170.56 630.737 3128.31 635.685 3084.02 636.713 3043.63 621.389 2996.45 603.752 2957.41 562.567 2946.85 512.708 2937.35 469.081 2945.12 420.282 2973.59 385.008 2995.96 357.958 3026.3 337.301 3059.91 327.021M3069.25 394.196C3046.59 403.063 3028.71 421.213 3017.34 442.417 3083.15 442.481 3148.99 442.641 3214.79 442.352 3202.46 419.318 3182.27 399.978 3157.07 391.947 3128.7 383.112 3097.05 383.273 3069.25 394.196Z" fill-rule="evenodd"/><path d="M3414.87 335.502C3463.06 322.203 3514.25 313.026 3563.95 323.62 3588.64 329.062 3612.91 340.879 3628.92 361.069 3642.78 377.717 3648.21 399.839 3648.05 421.188 3648.24 466.43 3648.15 511.704 3648.21 556.946 3662.2 557.3 3677.37 556.141 3689.91 563.579 3706.18 573.722 3708.69 598.968 3695.73 612.718 3687.21 621.991 3673.8 623.537 3661.97 623.859 3635.03 624.149 3608.09 623.923 3581.15 623.955 3581.15 618.9 3581.18 613.844 3581.25 608.789 3546.36 625.759 3507.66 634.839 3468.88 635 3437.76 634.936 3405.49 626.274 3381.92 605.086 3363.18 589.114 3348.49 565.833 3350.12 540.33 3351.57 502.462 3379.96 471.807 3410.57 452.809 3462.1 422.991 3524.6 426.888 3581.31 435.581 3582.63 419.835 3580.86 400.451 3564.46 393.012 3536.2 381.581 3504.41 385.767 3475.09 390.468 3453.61 393.56 3432.88 402.544 3410.98 401.449 3387.71 399.259 3375.49 368.829 3388.32 350.089 3394.3 341.201 3405.23 338.497 3414.87 335.502M3496.08 496.827C3470.65 498.888 3444.23 507.292 3426.13 526.033 3418.09 533.568 3415.97 548.123 3425.32 555.497 3441.36 567.25 3462.39 568.925 3481.65 567.797 3516.95 564.61 3551.57 552.663 3581.15 533.053 3581.18 523.457 3581.18 513.861 3581.18 504.266 3553.18 499.049 3524.63 495.475 3496.08 496.827Z" fill-rule="evenodd"/><path d="M3814.15 358.018C3842.09 333.638 3878.85 321.334 3915.47 319.467 3952.61 317.212 3990.69 323.009 4024.33 339.531 4032.64 332.929 4042.68 326.681 4053.84 328.839 4068.01 330.223 4078.98 342.784 4080.65 356.666 4083.28 373.671 4081.52 390.999 4082.09 408.133 4081.93 421.821 4082.42 436.99 4074.04 448.618 4062.63 463.079 4039.4 463.723 4025.58 452.515 4013.62 440.63 4016.99 420.662 4004.8 408.874 3992.03 396.248 3973.91 391.192 3956.78 388.036 3923.94 383.011 3887.09 385.652 3860.31 407.392 3833.81 427.522 3821.15 462.466 3825.35 495.157 3827.46 520.44 3843.47 543.886 3866.34 554.708 3894.66 568.042 3926.83 568.718 3957.52 568.01 3980.39 566.528 4004.44 564.757 4024.84 553.227 4038.03 546.044 4047.49 531.648 4063.24 529.683 4086.07 527.139 4105.7 553.259 4096.82 574.676 4088.38 595.096 4068.01 607.141 4048.93 616.095 4009.19 633.326 3964.93 636.031 3922.21 634.711 3878.17 633.262 3831.92 621.12 3800.07 588.848 3770.31 561.117 3756.36 519.505 3758.15 479.279 3758.35 433.255 3778.55 387.359 3814.15 358.018Z" fill-rule="evenodd"/><path d="M4217.17 346.174C4282.5 304.821 4373.05 311.794 4433.3 359.412 4454.23 378.98 4469.8 404.075 4479.75 430.873 4489.03 455.999 4487.71 483.182 4487.49 509.498 4396.35 509.498 4305.22 509.401 4214.06 509.562 4225.17 536.713 4250.75 556.088 4278.93 562.611 4321.95 572.796 4366.53 564.763 4408.78 554.514 4426.21 550.786 4443.64 543.942 4461.74 545.453 4484.98 548.409 4496.47 580.219 4480.78 597.538 4468.84 610.036 4450.89 613.539 4435 618.358 4387.27 630.344 4337.52 637.413 4288.31 632.336 4245.07 627.902 4202.99 607.53 4175.51 573.342 4143.25 535.46 4134.87 481.03 4147.84 433.732 4157.57 396.396 4184.95 366.128 4217.17 346.174M4275.66 391.512C4249.82 399.384 4228.83 418.855 4216.31 442.472 4282.14 442.536 4347.98 442.697 4413.82 442.407 4402.1 420.848 4383.8 402.211 4360.53 393.6 4333.54 383.639 4303.11 383.222 4275.66 391.512Z" fill-rule="evenodd"/><path d="M1390.41 360.318C1389.7 342.086 1406.96 328.869 1424.05 328.709 1467.84 327.326 1511.69 328.451 1555.52 328.13 1555.48 404.405 1555.45 480.647 1555.52 556.922 1582.5 557.115 1609.49 556.987 1636.48 557.147 1648.37 557.533 1661.8 558.562 1670.73 567.437 1684.22 580.461 1682.87 605.542 1667.42 616.54 1657.43 623.293 1644.8 623.775 1633.14 624 1558.18 623.904 1483.23 624 1408.31 623.968 1396.26 623.55 1382.54 622.746 1373.48 613.742 1360.02 601.073 1360.98 576.409 1375.82 565.186 1384.98 558.241 1397.06 557.469 1408.14 557.115 1435 556.954 1461.83 556.954 1488.66 556.922 1488.69 502.964 1488.69 449.005 1488.66 395.015 1465.88 394.275 1443 396.076 1420.32 393.825 1403.49 392.571 1389.09 377.554 1390.41 360.318Z" fill-rule="evenodd"/><path d="M98 412C98 207.102 260.297 40.9999 460.5 40.9999 660.703 40.9999 823 207.102 823 412 823 616.898 660.703 783 460.5 783 260.297 783 98 616.898 98 412Z" fill-rule="evenodd"/><path d="M539.024 170.574C636.92 170.762 716.159 234.403 716.008 312.72 715.858 391.036 636.376 454.372 538.48 454.184L538.616 383.281C597.353 383.394 645.031 351.741 645.106 312.583 645.181 273.425 597.626 241.589 538.888 241.476Z" fill="#FFFFFF" fill-rule="evenodd"/><rect x="270" y="170" width="73.0002" height="503" fill="#FFFFFF"/><rect x="270" y="170" width="242" height="72.9999" fill="#FFFFFF"/><rect x="270" y="381" width="242" height="74.0002" fill="#FFFFFF"/></g></svg>