<svg width="4390" height="742" xmlns="http://www.w3.org/2000/svg" xmlns:xlink="http://www.w3.org/1999/xlink" xml:space="preserve" overflow="hidden"><defs><clipPath id="clip0"><rect x="-34" y="1656" width="4390" height="742"/></clipPath></defs><g clip-path="url(#clip0)" transform="translate(34 -1656)"><path d="M1334 1816.01C1360.66 1815.98 1387.32 1816.01 1413.98 1816.01 1413.98 1839.69 1414.05 1863.33 1413.92 1886.97 1387.29 1886.97 1360.66 1886.9 1334.03 1887 1334 1863.36 1334.03 1839.69 1334 1816.01Z" fill="#FFFFFF" fill-rule="evenodd"/><path d="M1669.4 1824.88C1679 1817.19 1691.92 1816.39 1703.74 1816.19 1743.65 1816.16 1783.55 1816.03 1823.46 1816 1823.49 1934.63 1823.46 2053.27 1823.49 2171.87 1850 2172.09 1876.5 2172.03 1903.04 2172.09 1915 2172.45 1928.46 2173.09 1937.81 2181.61 1952.49 2194.48 1951.14 2221.02 1934.85 2231.96 1924.44 2238.49 1911.69 2238.9 1899.8 2239 1829.18 2238.94 1758.52 2238.94 1687.9 2239 1673.8 2238.87 1658.6 2239.84 1645.98 2232.41 1629.46 2222.08 1627.28 2196.06 1641.06 2182.61 1649.77 2173.8 1662.97 2172.57 1674.7 2172.12 1702.01 2171.87 1729.32 2171.96 1756.66 2171.9 1756.73 2075.69 1756.63 1979.44 1756.69 1883.2 1739.05 1882.97 1721.42 1883 1703.81 1882.97 1692.79 1882.81 1681.09 1882.1 1671.61 1875.93 1655 1864.86 1653.75 1837.36 1669.4 1824.88Z" fill="#FFFFFF" fill-rule="evenodd"/><path d="M833.018 1852.7C842.306 1844.13 855.805 1843.19 867.826 1843 972.572 1843.03 1077.29 1842.97 1182 1843.13 1181.65 1878.44 1182.06 1913.72 1181.74 1949.03 1181.29 1961.24 1179.17 1975.19 1168.76 1983.02 1153.43 1995.62 1126.17 1990.4 1119.07 1971.04 1112.32 1951.58 1115.86 1930.54 1114.95 1910.37 1058.32 1910.3 1001.69 1910.34 945.06 1910.37 945.028 1942.56 945.028 1974.77 945.06 2006.96 964.409 2006.99 983.757 2006.99 1003.11 2006.96 1004.3 1993.85 1002.3 1978.32 1012.49 1968.14 1024.45 1954.06 1048.97 1954.03 1060.96 1968.11 1069.28 1977.87 1070.05 1991.53 1070.15 2003.8 1070.09 2029.58 1070.25 2055.35 1070.09 2081.13 1069.83 2092.34 1068.61 2104.74 1060.93 2113.54 1048.91 2127.52 1024.35 2127.68 1012.46 2113.48 1002.17 2103.17 1004.33 2087.48 1003.07 2074.27 983.725 2074.2 964.409 2074.23 945.06 2074.27 945.028 2106.84 945.028 2139.41 945.06 2171.95 967.558 2172.15 990.025 2172.08 1012.49 2172.11 1024.58 2172.31 1038.07 2173.05 1047.52 2181.52 1061.57 2193.99 1060.99 2218.93 1046.3 2230.66 1036.76 2237.87 1024.29 2238.81 1012.75 2239 965.598 2239 918.415 2238.94 871.233 2239 858.634 2238.9 844.781 2238.55 834.303 2230.56 819.101 2218.35 819.197 2191.77 835.043 2180.1 847.32 2171.12 863.359 2172.4 877.757 2171.89 877.757 2084.74 877.789 1997.59 877.757 1910.43 863.808 1910.14 848.67 1910.98 836.36 1903.35 819.937 1892.42 818.458 1865.78 833.018 1852.7Z" fill="#FFFFFF" fill-rule="evenodd"/><path d="M2438.01 1853.7C2446.59 1844.62 2459.98 1843.29 2471.81 1843 2522.28 1842.97 2572.78 1843.13 2623.28 1843.23 2652.94 1843.23 2683.46 1847.61 2709.64 1862.3 2743.44 1881.22 2769.04 1916.05 2773.06 1955.13 2777.36 1989.8 2766.95 2027.21 2741.41 2051.76 2714.59 2078.02 2680.21 2098.84 2642.11 2101.74 2611.78 2104.38 2581.26 2102.74 2550.84 2103.35 2550.81 2126.19 2550.81 2149.07 2550.84 2171.91 2578.14 2172.72 2605.58 2170.82 2632.82 2173.11 2651.17 2174.07 2665.66 2191.86 2662.38 2210.13 2660.94 2228.04 2642.98 2238.8 2626.33 2238.58 2576.99 2239.45 2527.61 2238.64 2478.26 2239 2465.03 2238.84 2449.99 2238.84 2439.45 2229.62 2424.84 2217.05 2425.74 2190.96 2441.45 2179.71 2453.85 2171.04 2469.65 2172.53 2483.98 2171.59 2483.72 2084.53 2483.89 1997.47 2483.89 1910.41 2470.14 1910.06 2455.29 1910.96 2443.02 1903.68 2426.54 1893.33 2424.23 1867.2 2438.01 1853.7M2550.84 1910.28C2550.81 1952.2 2550.81 1994.12 2550.84 2036.04 2582.35 2035.23 2614.32 2038.97 2645.48 2032.82 2671.25 2027.27 2697.17 2010.46 2705.14 1984.1 2710.86 1965.83 2705.11 1945.11 2691.26 1932.09 2675.36 1915.63 2651.62 1910.41 2629.55 1910.28 2603.3 1910.22 2577.05 1910.31 2550.84 1910.28Z" fill="#FFFFFF" fill-rule="evenodd"/><path d="M2153.43 1936.28C2205.26 1928.25 2260.49 1941.55 2301.85 1974.07 2325.56 1996.12 2342.89 2025.07 2351.94 2056.11 2357.85 2078.38 2356.44 2101.61 2356.82 2124.43 2265.59 2124.62 2174.36 2124.33 2083.12 2124.56 2094.71 2152.96 2122.08 2172.53 2151.64 2178.48 2199.45 2188.44 2248.13 2177.16 2294.53 2165.36 2308.85 2162.44 2324.38 2156.56 2338.62 2162.86 2355.63 2170.31 2362.47 2193.96 2352.1 2209.39 2343.98 2221.5 2329.06 2225.62 2315.97 2229.99 2269.63 2243.29 2221.24 2250.55 2172.98 2248.72 2128.72 2246.86 2083.77 2230.73 2053.15 2197.76 1998.86 2144.35 1996.61 2047.4 2048.76 1991.84 2076.35 1962.6 2113.48 1941.97 2153.43 1936.28M2138.83 2008.62C2115.54 2017.26 2097.05 2035.83 2085.44 2057.49 2151.19 2057.52 2216.94 2057.62 2282.72 2057.46 2270.43 2033.97 2249.7 2014.5 2224.1 2006.66 2196.53 1998.27 2165.95 1998.49 2138.83 2008.62Z" fill="#FFFFFF" fill-rule="evenodd"/><path d="M2927.25 1942.02C2976.69 1927.31 3031.97 1932.96 3077.17 1957.96 3110.55 1974.05 3132.22 2006.59 3146.38 2039.68 3158 2066.35 3156.81 2096 3156.62 2124.43 3065.16 2124.46 2973.7 2124.3 2882.24 2124.5 2893.8 2152.54 2920.74 2172.17 2950.1 2178.18 2997.68 2188.39 3046.3 2177.44 3092.52 2165.71 3106.85 2162.85 3122.04 2156.97 3136.6 2161.92 3154.46 2168.44 3162.74 2192.25 3152.63 2208.41 3145.77 2219.84 3132.31 2224.25 3120.43 2228.42 3093.68 2236.81 3066.03 2242.27 3038.21 2245.74 2995.85 2250.68 2951.42 2251.71 2910.92 2236.39 2863.6 2218.75 2824.45 2177.57 2813.86 2127.71 2804.33 2084.08 2812.12 2035.28 2840.68 2000.01 2863.12 1972.96 2893.54 1952.3 2927.25 1942.02M2936.61 2009.2C2913.89 2018.06 2895.95 2036.21 2884.56 2057.42 2950.55 2057.48 3016.58 2057.64 3082.58 2057.35 3070.21 2034.32 3049.96 2014.98 3024.69 2006.95 2996.24 1998.11 2964.49 1998.27 2936.61 2009.2Z" fill="#FFFFFF" fill-rule="evenodd"/><path d="M3281.87 1950.5C3330.07 1937.2 3381.25 1928.03 3430.95 1938.62 3455.64 1944.06 3479.91 1955.88 3495.92 1976.07 3509.78 1992.72 3515.21 2014.84 3515.05 2036.19 3515.24 2081.43 3515.15 2126.7 3515.21 2171.95 3529.2 2172.3 3544.37 2171.14 3556.91 2178.58 3573.18 2188.72 3575.69 2213.97 3562.73 2227.72 3554.21 2236.99 3540.8 2238.54 3528.97 2238.86 3502.03 2239.15 3475.09 2238.92 3448.15 2238.96 3448.15 2233.9 3448.18 2228.84 3448.25 2223.79 3413.36 2240.76 3374.66 2249.84 3335.88 2250 3304.76 2249.94 3272.49 2241.27 3248.92 2220.09 3230.18 2204.11 3215.49 2180.83 3217.13 2155.33 3218.57 2117.46 3246.96 2086.81 3277.57 2067.81 3329.1 2037.99 3391.6 2041.89 3448.31 2050.58 3449.63 2034.84 3447.86 2015.45 3431.46 2008.01 3403.2 1996.58 3371.41 2000.77 3342.09 2005.47 3320.61 2008.56 3299.88 2017.54 3277.98 2016.45 3254.71 2014.26 3242.49 1983.83 3255.32 1965.09 3261.3 1956.2 3272.23 1953.5 3281.87 1950.5M3363.08 2111.83C3337.65 2113.89 3311.23 2122.29 3293.13 2141.03 3285.09 2148.57 3282.97 2163.12 3292.32 2170.5 3308.36 2182.25 3329.39 2183.92 3348.65 2182.8 3383.95 2179.61 3418.57 2167.66 3448.15 2148.05 3448.18 2138.46 3448.18 2128.86 3448.18 2119.27 3420.18 2114.05 3391.63 2110.47 3363.08 2111.83Z" fill="#FFFFFF" fill-rule="evenodd"/><path d="M3681.32 1973.02C3709.34 1948.64 3746.2 1936.33 3782.94 1934.47 3820.19 1932.21 3858.37 1938.01 3892.11 1954.53 3900.44 1947.93 3910.51 1941.68 3921.71 1943.84 3935.92 1945.22 3946.93 1957.78 3948.6 1971.67 3951.24 1988.67 3949.47 2006 3950.05 2023.13 3949.88 2036.82 3950.37 2051.99 3941.97 2063.62 3930.52 2078.08 3907.23 2078.72 3893.37 2067.51 3881.37 2055.63 3884.75 2035.66 3872.52 2023.87 3859.72 2011.25 3841.54 2006.19 3824.37 2003.04 3791.43 1998.01 3754.47 2000.65 3727.61 2022.39 3701.04 2042.52 3688.33 2077.47 3692.54 2110.16 3694.67 2135.44 3710.72 2158.89 3733.65 2169.71 3762.06 2183.04 3794.32 2183.72 3825.11 2183.01 3848.04 2181.53 3872.17 2179.76 3892.63 2168.23 3905.85 2161.04 3915.34 2146.65 3931.13 2144.68 3954.03 2142.14 3973.72 2168.26 3964.81 2189.68 3956.35 2210.1 3935.92 2222.14 3916.78 2231.09 3876.93 2248.33 3832.54 2251.03 3789.69 2249.71 3745.52 2248.26 3699.14 2236.12 3667.2 2203.85 3637.35 2176.12 3623.35 2134.51 3625.15 2094.28 3625.35 2048.25 3645.61 2002.36 3681.32 1973.02Z" fill="#FFFFFF" fill-rule="evenodd"/><path d="M4084.39 1961.17C4149.9 1919.82 4240.72 1926.79 4301.14 1974.41 4322.13 1993.98 4337.75 2019.07 4347.73 2045.87 4357.03 2071 4355.71 2098.18 4355.48 2124.5 4264.09 2124.5 4172.7 2124.4 4081.27 2124.56 4092.41 2151.71 4118.07 2171.09 4146.33 2177.61 4189.47 2187.8 4234.18 2179.76 4276.55 2169.51 4294.03 2165.79 4311.51 2158.94 4329.67 2160.45 4352.97 2163.41 4364.5 2195.22 4348.76 2212.54 4336.78 2225.04 4318.79 2228.54 4302.85 2233.36 4254.98 2245.34 4205.08 2252.41 4155.73 2247.34 4112.37 2242.9 4070.16 2222.53 4042.61 2188.34 4010.25 2150.46 4001.85 2096.03 4014.86 2048.73 4024.61 2011.4 4052.07 1981.13 4084.39 1961.17M4143.05 2006.51C4117.13 2014.38 4096.08 2033.86 4083.52 2057.47 4149.55 2057.54 4215.58 2057.7 4281.6 2057.41 4269.85 2035.85 4251.5 2017.21 4228.16 2008.6 4201.09 1998.64 4170.57 1998.22 4143.05 2006.51Z" fill="#FFFFFF" fill-rule="evenodd"/><path d="M1258.41 1975.32C1257.7 1957.09 1274.96 1943.87 1292.05 1943.71 1335.84 1942.33 1379.69 1943.45 1423.52 1943.13 1423.48 2019.4 1423.45 2095.65 1423.52 2171.92 1450.5 2172.11 1477.49 2171.99 1504.48 2172.15 1516.37 2172.53 1529.8 2173.56 1538.73 2182.44 1552.22 2195.46 1550.87 2220.54 1535.42 2231.54 1525.43 2238.29 1512.8 2238.78 1501.14 2239 1426.18 2238.9 1351.23 2239 1276.31 2238.97 1264.26 2238.55 1250.54 2237.75 1241.48 2228.74 1228.02 2216.07 1228.98 2191.41 1243.82 2180.19 1252.98 2173.24 1265.06 2172.47 1276.14 2172.11 1303 2171.95 1329.83 2171.95 1356.66 2171.92 1356.69 2117.96 1356.69 2064.01 1356.66 2010.01 1333.88 2009.28 1311 2011.08 1288.32 2008.83 1271.49 2007.57 1257.09 1992.55 1258.41 1975.32Z" fill="#FFFFFF" fill-rule="evenodd"/><path d="M-34 2027C-34 1822.1 128.073 1656 328 1656 527.927 1656 690 1822.1 690 2027 690 2231.9 527.927 2398 328 2398 128.073 2398-34 2231.9-34 2027Z" fill="#FFFFFF" fill-rule="evenodd"/><path d="M406.315 1785.65C504.211 1785.84 583.449 1849.48 583.299 1927.8 583.149 2006.12 503.666 2069.45 405.771 2069.26L405.907 1998.36C464.644 1998.47 512.321 1966.82 512.396 1927.66 512.472 1888.5 464.916 1856.67 406.179 1856.56Z" fill-rule="evenodd"/><rect x="137" y="1785" width="72.9999" height="503"/><rect x="137" y="1785" width="242" height="73.9999"/><rect x="137" y="1996" width="242" height="73.9999"/></g></svg>