<svg width="1070" height="1097" xmlns="http://www.w3.org/2000/svg" xmlns:xlink="http://www.w3.org/1999/xlink" xml:space="preserve" overflow="hidden"><g transform="translate(-2073 -355)"><path d="M2073 903.5C2073 600.572 2312.53 355 2608 355 2903.47 355 3143 600.572 3143 903.5 3143 1206.43 2903.47 1452 2608 1452 2312.53 1452 2073 1206.43 2073 903.5Z" fill="#F6CA38" fill-rule="evenodd"/><path d="M2723.78 546.565C2868.42 546.842 2985.49 640.869 2985.27 756.579 2985.04 872.289 2867.61 965.865 2722.97 965.587L2723.18 860.831C2809.96 860.998 2880.4 814.232 2880.51 756.377 2880.62 698.522 2810.36 651.487 2723.58 651.32Z" fill="#00B0F0" fill-rule="evenodd"/><rect x="2326" y="546" width="108" height="743" fill="#00B0F0"/><rect x="2326" y="546" width="357" height="108" fill="#00B0F0"/><rect x="2326" y="858" width="357" height="108" fill="#00B0F0"/></g></svg>