<svg width="4390" height="742" xmlns="http://www.w3.org/2000/svg" xmlns:xlink="http://www.w3.org/1999/xlink" xml:space="preserve" overflow="hidden"><defs><clipPath id="clip0"><rect x="119" y="1408" width="4390" height="742"/></clipPath></defs><g clip-path="url(#clip0)" transform="translate(-119 -1408)"><path d="M1488 1567.01C1514.66 1566.98 1541.32 1567.01 1567.98 1567.01 1567.98 1590.69 1568.05 1614.33 1567.92 1637.97 1541.29 1637.97 1514.66 1637.9 1488.03 1638 1488 1614.36 1488.03 1590.69 1488 1567.01Z" fill="#00B0F0" fill-rule="evenodd"/><path d="M1822.4 1575.88C1832 1568.19 1844.92 1567.39 1856.74 1567.19 1896.65 1567.16 1936.55 1567.03 1976.46 1567 1976.49 1685.63 1976.46 1804.27 1976.49 1922.87 2003 1923.09 2029.5 1923.03 2056.04 1923.09 2068 1923.45 2081.46 1924.09 2090.81 1932.61 2105.49 1945.48 2104.14 1972.02 2087.85 1982.96 2077.44 1989.49 2064.69 1989.9 2052.8 1990 1982.18 1989.94 1911.52 1989.94 1840.9 1990 1826.8 1989.87 1811.6 1990.84 1798.98 1983.41 1782.46 1973.08 1780.28 1947.06 1794.06 1933.61 1802.77 1924.8 1815.97 1923.57 1827.7 1923.12 1855.01 1922.87 1882.32 1922.96 1909.66 1922.9 1909.73 1826.69 1909.63 1730.44 1909.69 1634.2 1892.05 1633.97 1874.42 1634 1856.81 1633.97 1845.79 1633.81 1834.09 1633.1 1824.61 1626.93 1808 1615.86 1806.75 1588.36 1822.4 1575.88Z" fill="#00B0F0" fill-rule="evenodd"/><path d="M986.018 1604.67C995.306 1596.12 1008.81 1595.19 1020.83 1595 1125.57 1595.03 1230.29 1594.97 1335 1595.13 1334.65 1630.35 1335.06 1665.54 1334.74 1700.76 1334.29 1712.94 1332.17 1726.86 1321.76 1734.67 1306.43 1747.23 1279.17 1742.03 1272.07 1722.71 1265.32 1703.3 1268.85 1682.32 1267.95 1662.2 1211.32 1662.13 1154.69 1662.17 1098.06 1662.2 1098.03 1694.3 1098.03 1726.44 1098.06 1758.55 1117.41 1758.58 1136.76 1758.58 1156.11 1758.55 1157.3 1745.47 1155.3 1729.98 1165.49 1719.82 1177.45 1705.78 1201.97 1705.75 1213.96 1719.79 1222.28 1729.53 1223.05 1743.15 1223.15 1755.4 1223.09 1781.11 1223.25 1806.82 1223.09 1832.53 1222.83 1843.71 1221.61 1856.08 1213.93 1864.86 1201.91 1878.8 1177.35 1878.97 1165.46 1864.79 1155.17 1854.51 1157.33 1838.86 1156.07 1825.68 1136.73 1825.62 1117.41 1825.65 1098.06 1825.68 1098.03 1858.17 1098.03 1890.66 1098.06 1923.12 1120.56 1923.32 1143.02 1923.25 1165.49 1923.28 1177.58 1923.48 1191.07 1924.22 1200.52 1932.67 1214.57 1945.1 1213.99 1969.98 1199.3 1981.68 1189.76 1988.88 1177.29 1989.81 1165.75 1990 1118.6 1990 1071.42 1989.94 1024.23 1990 1011.63 1989.9 997.781 1989.55 987.303 1981.58 972.101 1969.4 972.197 1942.89 988.043 1931.25 1000.32 1922.29 1016.36 1923.57 1030.76 1923.06 1030.76 1836.13 1030.79 1749.19 1030.76 1662.26 1016.81 1661.97 1001.67 1662.81 989.36 1655.19 972.937 1644.3 971.458 1617.72 986.018 1604.67Z" fill="#00B0F0" fill-rule="evenodd"/><path d="M2591.01 1605.67C2599.59 1596.61 2612.98 1595.29 2624.81 1595 2675.28 1594.97 2725.78 1595.13 2776.28 1595.23 2805.94 1595.23 2836.46 1599.6 2862.64 1614.26 2896.44 1633.12 2922.04 1667.86 2926.06 1706.85 2930.36 1741.43 2919.95 1778.75 2894.41 1803.24 2867.59 1829.43 2833.21 1850.19 2795.11 1853.08 2764.78 1855.72 2734.26 1854.08 2703.84 1854.69 2703.81 1877.48 2703.81 1900.3 2703.84 1923.08 2731.14 1923.89 2758.58 1921.99 2785.82 1924.27 2804.17 1925.24 2818.66 1942.98 2815.38 1961.2 2813.94 1979.07 2795.98 1989.8 2779.33 1989.58 2729.99 1990.45 2680.61 1989.64 2631.26 1990 2618.03 1989.84 2602.99 1989.84 2592.45 1980.65 2577.84 1968.11 2578.74 1942.08 2594.45 1930.86 2606.85 1922.22 2622.65 1923.69 2636.98 1922.76 2636.72 1835.92 2636.89 1749.08 2636.89 1662.24 2623.14 1661.89 2608.29 1662.79 2596.02 1655.52 2579.54 1645.21 2577.23 1619.14 2591.01 1605.67M2703.84 1662.11C2703.81 1703.92 2703.81 1745.74 2703.84 1787.55 2735.35 1786.75 2767.32 1790.48 2798.48 1784.34 2824.25 1778.81 2850.17 1762.03 2858.14 1735.74 2863.86 1717.52 2858.11 1696.85 2844.26 1683.87 2828.36 1667.45 2804.62 1662.24 2782.55 1662.11 2756.3 1662.05 2730.05 1662.14 2703.84 1662.11Z" fill="#00B0F0" fill-rule="evenodd"/><path d="M2306.85 1687.29C2358.82 1679.23 2414.21 1692.58 2455.69 1725.2 2479.47 1747.31 2496.85 1776.36 2505.93 1807.5 2511.85 1829.84 2510.43 1853.14 2510.82 1876.03 2419.32 1876.22 2327.83 1875.93 2236.33 1876.16 2247.95 1904.66 2275.4 1924.29 2305.04 1930.25 2353 1940.24 2401.82 1928.93 2448.35 1917.1 2462.71 1914.17 2478.28 1908.27 2492.57 1914.59 2509.63 1922.06 2516.48 1945.79 2506.09 1961.26 2497.95 1973.42 2482.98 1977.54 2469.85 1981.93 2423.38 1995.27 2374.85 2002.56 2326.44 2000.72 2282.07 1998.85 2236.98 1982.67 2206.27 1949.59 2151.82 1896.02 2149.57 1798.76 2201.87 1743.03 2229.54 1713.69 2266.78 1693 2306.85 1687.29M2292.2 1759.85C2268.84 1768.52 2250.3 1787.16 2238.65 1808.88 2304.59 1808.92 2370.54 1809.01 2436.51 1808.85 2424.18 1785.29 2403.39 1765.75 2377.71 1757.89 2350.07 1749.47 2319.4 1749.7 2292.2 1759.85Z" fill="#00B0F0" fill-rule="evenodd"/><path d="M3080.25 1693.05C3129.69 1678.29 3184.97 1683.96 3230.17 1709.03 3263.55 1725.18 3285.22 1757.82 3299.38 1791.02 3311 1817.77 3309.81 1847.51 3309.62 1876.04 3218.16 1876.07 3126.7 1875.91 3035.24 1876.1 3046.8 1904.23 3073.74 1923.93 3103.1 1929.95 3150.68 1940.2 3199.3 1929.21 3245.52 1917.45 3259.85 1914.58 3275.04 1908.68 3289.6 1913.65 3307.46 1920.19 3315.74 1944.07 3305.63 1960.28 3298.77 1971.75 3285.31 1976.17 3273.43 1980.36 3246.68 1988.77 3219.03 1994.25 3191.21 1997.73 3148.85 2002.69 3104.42 2003.72 3063.92 1988.35 3016.6 1970.66 2977.45 1929.34 2966.86 1879.32 2957.33 1835.56 2965.12 1786.6 2993.68 1751.22 3016.12 1724.08 3046.54 1703.36 3080.25 1693.05M3089.61 1760.43C3066.89 1769.33 3048.95 1787.54 3037.56 1808.81 3103.55 1808.87 3169.58 1809.03 3235.58 1808.74 3223.21 1785.64 3202.96 1766.24 3177.69 1758.18 3149.24 1749.32 3117.49 1749.48 3089.61 1760.43Z" fill="#00B0F0" fill-rule="evenodd"/><path d="M3435.69 1701.5C3483.75 1688.2 3534.78 1679.03 3584.35 1689.62 3608.97 1695.06 3633.17 1706.88 3649.14 1727.07 3662.95 1743.72 3668.37 1765.84 3668.21 1787.19 3668.4 1832.43 3668.31 1877.7 3668.37 1922.95 3682.32 1923.3 3697.45 1922.14 3709.95 1929.58 3726.17 1939.72 3728.67 1964.97 3715.75 1978.72 3707.26 1987.99 3693.89 1989.54 3682.09 1989.86 3655.23 1990.15 3628.36 1989.92 3601.5 1989.96 3601.5 1984.9 3601.53 1979.84 3601.59 1974.79 3566.81 1991.76 3528.21 2000.84 3489.55 2001 3458.52 2000.94 3426.33 1992.27 3402.83 1971.09 3384.14 1955.11 3369.49 1931.83 3371.12 1906.33 3372.57 1868.46 3400.88 1837.81 3431.39 1818.81 3482.78 1788.99 3545.11 1792.89 3601.66 1801.58 3602.97 1785.84 3601.21 1766.45 3584.86 1759.01 3556.68 1747.58 3524.97 1751.77 3495.74 1756.47 3474.32 1759.56 3453.64 1768.54 3431.81 1767.45 3408.6 1765.26 3396.42 1734.83 3409.21 1716.09 3415.17 1707.2 3426.07 1704.5 3435.69 1701.5M3516.67 1862.83C3491.31 1864.89 3464.96 1873.29 3446.91 1892.03 3438.9 1899.57 3436.78 1914.12 3446.11 1921.5 3462.11 1933.25 3483.07 1934.92 3502.28 1933.8 3537.48 1930.61 3572 1918.66 3601.5 1899.05 3601.53 1889.46 3601.53 1879.86 3601.53 1870.27 3573.61 1865.05 3545.14 1861.48 3516.67 1862.83Z" fill="#00B0F0" fill-rule="evenodd"/><path d="M3834.32 1724.02C3862.34 1699.64 3899.2 1687.33 3935.94 1685.47 3973.19 1683.21 4011.37 1689.01 4045.11 1705.53 4053.44 1698.93 4063.51 1692.68 4074.71 1694.84 4088.92 1696.22 4099.93 1708.78 4101.6 1722.67 4104.24 1739.67 4102.47 1757 4103.05 1774.13 4102.88 1787.82 4103.37 1802.99 4094.97 1814.62 4083.52 1829.08 4060.23 1829.72 4046.37 1818.51 4034.37 1806.63 4037.75 1786.66 4025.52 1774.87 4012.72 1762.25 3994.54 1757.19 3977.37 1754.04 3944.43 1749.01 3907.47 1751.65 3880.61 1773.39 3854.04 1793.52 3841.33 1828.47 3845.54 1861.16 3847.67 1886.44 3863.72 1909.89 3886.66 1920.71 3915.06 1934.04 3947.32 1934.72 3978.11 1934.01 4001.04 1932.53 4025.17 1930.76 4045.63 1919.23 4058.85 1912.04 4068.34 1897.65 4084.13 1895.68 4107.03 1893.14 4126.72 1919.26 4117.81 1940.68 4109.35 1961.1 4088.92 1973.14 4069.78 1982.1 4029.93 1999.33 3985.54 2002.03 3942.69 2000.71 3898.52 1999.26 3852.14 1987.12 3820.2 1954.85 3790.35 1927.12 3776.35 1885.51 3778.15 1845.28 3778.35 1799.25 3798.61 1753.36 3834.32 1724.02Z" fill="#00B0F0" fill-rule="evenodd"/><path d="M4237.39 1712.26C4302.9 1670.78 4393.72 1677.77 4454.14 1725.54 4475.13 1745.17 4490.75 1770.34 4500.73 1797.23 4510.03 1822.43 4508.71 1849.7 4508.48 1876.1 4417.09 1876.1 4325.7 1876.01 4234.27 1876.17 4245.41 1903.4 4271.06 1922.84 4299.33 1929.38 4342.47 1939.6 4387.18 1931.54 4429.55 1921.26 4447.03 1917.52 4464.51 1910.66 4482.67 1912.17 4505.97 1915.14 4517.5 1947.05 4501.76 1964.42 4489.78 1976.96 4471.79 1980.47 4455.85 1985.31 4407.98 1997.33 4358.08 2004.42 4308.73 1999.33 4265.37 1994.88 4223.16 1974.45 4195.61 1940.15 4163.25 1902.15 4154.85 1847.54 4167.86 1800.1 4177.61 1762.64 4205.07 1732.28 4237.39 1712.26M4296.05 1757.74C4270.13 1765.64 4249.08 1785.17 4236.52 1808.86 4302.55 1808.93 4368.58 1809.09 4434.6 1808.8 4422.85 1787.17 4404.5 1768.48 4381.16 1759.84 4354.09 1749.84 4323.57 1749.43 4296.05 1757.74Z" fill="#00B0F0" fill-rule="evenodd"/><path d="M1411.41 1726.32C1410.7 1708.09 1427.96 1694.87 1445.05 1694.71 1488.84 1693.33 1532.69 1694.45 1576.52 1694.13 1576.48 1770.4 1576.45 1846.65 1576.52 1922.92 1603.5 1923.11 1630.49 1922.99 1657.48 1923.15 1669.37 1923.53 1682.8 1924.56 1691.73 1933.44 1705.22 1946.46 1703.87 1971.54 1688.42 1982.54 1678.43 1989.29 1665.8 1989.78 1654.14 1990 1579.18 1989.9 1504.23 1990 1429.31 1989.97 1417.26 1989.55 1403.54 1988.75 1394.48 1979.74 1381.02 1967.07 1381.98 1942.41 1396.82 1931.19 1405.98 1924.24 1418.06 1923.47 1429.14 1923.11 1456 1922.95 1482.83 1922.95 1509.66 1922.92 1509.69 1868.96 1509.69 1815.01 1509.66 1761.01 1486.88 1760.28 1464 1762.08 1441.32 1759.83 1424.49 1758.57 1410.09 1743.55 1411.41 1726.32Z" fill="#00B0F0" fill-rule="evenodd"/><path d="M119 1779C119 1574.1 281.073 1408 481 1408 680.927 1408 843 1574.1 843 1779 843 1983.9 680.927 2150 481 2150 281.073 2150 119 1983.9 119 1779Z" fill="#F6CA38" fill-rule="evenodd"/><path d="M559.649 1537C657.545 1537.18 736.784 1600.82 736.633 1679.14 736.483 1757.46 657.001 1820.79 559.105 1820.61L559.241 1749.7C617.978 1749.82 665.656 1718.16 665.731 1679 665.806 1639.85 618.251 1608.01 559.513 1607.9Z" fill="#00B0F0" fill-rule="evenodd"/><rect x="290" y="1537" width="72.9999" height="502" fill="#00B0F0"/><rect x="290" y="1537" width="242" height="73.0002" fill="#00B0F0"/><rect x="290" y="1748" width="242" height="72.9999" fill="#00B0F0"/></g></svg>